<svg width="115" height="39" viewBox="0 0 115 39" fill="none" xmlns="http://www.w3.org/2000/svg">
<path d="M13 30.2C10.7333 30.2 8.8 29.8267 7.2 29.08C5.62667 28.3067 4.34667 27.2533 3.36 25.92C2.4 24.5867 1.69333 23.08 1.24 21.4C0.786667 19.6933 0.56 17.92 0.56 16.08V1.6H6.08V16.08C6.08 17.2533 6.18667 18.4 6.4 19.52C6.64 20.6133 7.02667 21.6 7.56 22.48C8.09333 23.36 8.8 24.0533 9.68 24.56C10.56 25.0667 11.6533 25.32 12.96 25.32C14.2933 25.32 15.4 25.0667 16.28 24.56C17.1867 24.0267 17.8933 23.32 18.4 22.44C18.9333 21.56 19.32 20.5733 19.56 19.48C19.8 18.36 19.92 17.2267 19.92 16.08V1.6H25.4V16.08C25.4 18.0267 25.16 19.8533 24.68 21.56C24.2267 23.2667 23.4933 24.7733 22.48 26.08C21.4933 27.36 20.2133 28.3733 18.64 29.12C17.0667 29.84 15.1867 30.2 13 30.2ZM42.6484 30.4C41.0218 30.4 39.5818 30.04 38.3284 29.32C37.1018 28.5733 36.1418 27.5733 35.4484 26.32V38.52H30.0884V9.04H34.7684V12.64C35.5684 11.4133 36.5818 10.4533 37.8084 9.76C39.0351 9.04 40.4351 8.68 42.0084 8.68C43.4218 8.68 44.7151 8.96 45.8884 9.52C47.0884 10.08 48.1284 10.8667 49.0084 11.88C49.8884 12.8667 50.5684 14.0133 51.0484 15.32C51.5551 16.6 51.8084 17.9867 51.8084 19.48C51.8084 21.5067 51.4084 23.3467 50.6084 25C49.8351 26.6533 48.7551 27.9733 47.3684 28.96C46.0084 29.92 44.4351 30.4 42.6484 30.4ZM40.8484 25.84C41.6751 25.84 42.4218 25.6667 43.0884 25.32C43.7551 24.9733 44.3284 24.5067 44.8084 23.92C45.3151 23.3067 45.6884 22.6267 45.9284 21.88C46.1951 21.1067 46.3284 20.3067 46.3284 19.48C46.3284 18.6 46.1818 17.7867 45.8884 17.04C45.6218 16.2933 45.2218 15.64 44.6884 15.08C44.1551 14.4933 43.5284 14.04 42.8084 13.72C42.1151 13.4 41.3551 13.24 40.5284 13.24C40.0218 13.24 39.5018 13.3333 38.9684 13.52C38.4618 13.68 37.9684 13.92 37.4884 14.24C37.0084 14.56 36.5818 14.9333 36.2084 15.36C35.8618 15.7867 35.6084 16.2533 35.4484 16.76V21.68C35.7684 22.4533 36.1951 23.16 36.7284 23.8C37.2884 24.44 37.9284 24.9467 38.6484 25.32C39.3684 25.6667 40.1018 25.84 40.8484 25.84Z" fill="white"/>
<path d="M72.88 9.04C72.6933 8.85333 72.3467 8.6 71.84 8.28C71.36 7.96 70.76 7.65333 70.04 7.36C69.3467 7.06667 68.5867 6.81333 67.76 6.6C66.9333 6.36 66.0933 6.24 65.24 6.24C63.7467 6.24 62.6133 6.52 61.84 7.08C61.0933 7.64 60.72 8.42667 60.72 9.44C60.72 10.2133 60.96 10.8267 61.44 11.28C61.92 11.7333 62.64 12.12 63.6 12.44C64.56 12.76 65.76 13.1067 67.2 13.48C69.0667 13.9333 70.68 14.4933 72.04 15.16C73.4267 15.8 74.48 16.6533 75.2 17.72C75.9467 18.76 76.32 20.1467 76.32 21.88C76.32 23.4 76.04 24.7067 75.48 25.8C74.92 26.8667 74.1467 27.7333 73.16 28.4C72.1733 29.0667 71.0533 29.56 69.8 29.88C68.5467 30.1733 67.2133 30.32 65.8 30.32C64.3867 30.32 62.9733 30.1733 61.56 29.88C60.1467 29.5867 58.7867 29.1733 57.48 28.64C56.1733 28.08 54.9733 27.4133 53.88 26.64L56.32 21.88C56.56 22.12 56.9867 22.44 57.6 22.84C58.2133 23.2133 58.96 23.6 59.84 24C60.72 24.3733 61.68 24.6933 62.72 24.96C63.76 25.2267 64.8133 25.36 65.88 25.36C67.3733 25.36 68.5067 25.1067 69.28 24.6C70.0533 24.0933 70.44 23.3733 70.44 22.44C70.44 21.5867 70.1333 20.92 69.52 20.44C68.9067 19.96 68.0533 19.5467 66.96 19.2C65.8667 18.8267 64.5733 18.4267 63.08 18C61.2933 17.4933 59.8 16.9333 58.6 16.32C57.4 15.68 56.5067 14.88 55.92 13.92C55.3333 12.96 55.04 11.76 55.04 10.32C55.04 8.37333 55.4933 6.74667 56.4 5.44C57.3333 4.10667 58.5867 3.10667 60.16 2.44C61.7333 1.74667 63.48 1.4 65.4 1.4C66.7333 1.4 67.9867 1.54667 69.16 1.84C70.36 2.13333 71.48 2.52 72.52 3C73.56 3.48 74.4933 4 75.32 4.56L72.88 9.04ZM89.6513 30.4C87.9446 30.4 86.4113 30.12 85.0513 29.56C83.6913 28.9733 82.5313 28.1733 81.5713 27.16C80.6379 26.1467 79.9179 24.9867 79.4113 23.68C78.9046 22.3733 78.6513 21 78.6513 19.56C78.6513 18.0933 78.9046 16.7067 79.4113 15.4C79.9179 14.0933 80.6379 12.9333 81.5713 11.92C82.5313 10.9067 83.6913 10.12 85.0513 9.56C86.4113 8.97333 87.9446 8.68 89.6513 8.68C91.3579 8.68 92.8779 8.97333 94.2113 9.56C95.5713 10.12 96.7313 10.9067 97.6913 11.92C98.6513 12.9333 99.3713 14.0933 99.8513 15.4C100.358 16.7067 100.611 18.0933 100.611 19.56C100.611 21 100.358 22.3733 99.8513 23.68C99.3713 24.9867 98.6513 26.1467 97.6913 27.16C96.7579 28.1733 95.6113 28.9733 94.2513 29.56C92.8913 30.12 91.3579 30.4 89.6513 30.4ZM84.1713 19.56C84.1713 20.7867 84.4113 21.88 84.8913 22.84C85.3713 23.7733 86.0246 24.5067 86.8513 25.04C87.6779 25.5733 88.6113 25.84 89.6513 25.84C90.6646 25.84 91.5846 25.5733 92.4113 25.04C93.2379 24.48 93.8913 23.7333 94.3713 22.8C94.8779 21.84 95.1313 20.7467 95.1313 19.52C95.1313 18.32 94.8779 17.24 94.3713 16.28C93.8913 15.32 93.2379 14.5733 92.4113 14.04C91.5846 13.5067 90.6646 13.24 89.6513 13.24C88.6113 13.24 87.6779 13.52 86.8513 14.08C86.0246 14.6133 85.3713 15.36 84.8913 16.32C84.4113 17.2533 84.1713 18.3333 84.1713 19.56ZM104.189 0.799999H109.549V23.28C109.549 24.24 109.709 24.8933 110.029 25.24C110.349 25.56 110.789 25.72 111.349 25.72C111.776 25.72 112.216 25.6667 112.669 25.56C113.122 25.4533 113.522 25.32 113.869 25.16L114.589 29.24C113.869 29.5867 113.029 29.8533 112.069 30.04C111.109 30.2267 110.242 30.32 109.469 30.32C107.789 30.32 106.482 29.88 105.549 29C104.642 28.0933 104.189 26.8133 104.189 25.16V0.799999Z" fill="#F2C94C"/>
</svg>
